<svg width="161" height="42" viewBox="0 0 161 42" fill="none" xmlns="http://www.w3.org/2000/svg">
<path d="M28.9218 26.55C28.9218 27.3167 28.8718 28.1333 28.7718 29H9.42179C9.55512 30.7667 10.1051 32.1167 11.0718 33.05C12.0385 33.9833 13.2551 34.45 14.7218 34.45C16.8551 34.45 18.3385 33.55 19.1718 31.75H28.2718C27.8051 33.5833 26.9551 35.2333 25.7218 36.7C24.5218 38.1667 23.0051 39.3167 21.1718 40.15C19.3385 40.9833 17.2885 41.4 15.0218 41.4C12.2885 41.4 9.85512 40.8167 7.72179 39.65C5.58846 38.4833 3.92179 36.8167 2.72179 34.65C1.52179 32.4833 0.92179 29.95 0.92179 27.05C0.92179 24.15 1.50512 21.6167 2.67179 19.45C3.87179 17.2833 5.53846 15.6167 7.67179 14.45C9.80512 13.2833 12.2551 12.7 15.0218 12.7C17.7218 12.7 20.1218 13.2667 22.2218 14.4C24.3218 15.5333 25.9551 17.15 27.1218 19.25C28.3218 21.35 28.9218 23.7833 28.9218 26.55ZM20.1718 24.65C20.1718 23.05 19.6718 21.8 18.6718 20.9C17.6718 20 16.4218 19.55 14.9218 19.55C13.4551 19.55 12.2218 20 11.2218 20.9C10.2551 21.7667 9.65512 23.0167 9.42179 24.65H20.1718ZM30.7323 27C30.7323 24.1333 31.2657 21.6167 32.3323 19.45C33.4323 17.2833 34.9157 15.6167 36.7823 14.45C38.649 13.2833 40.7323 12.7 43.0323 12.7C44.8657 12.7 46.5323 13.0833 48.0323 13.85C49.5657 14.6167 50.7657 15.65 51.6323 16.95V4H60.1823V41H51.6323V37C50.8323 38.3333 49.6823 39.4 48.1823 40.2C46.7157 41 44.999 41.4 43.0323 41.4C40.7323 41.4 38.649 40.8167 36.7823 39.65C34.9157 38.45 33.4323 36.7667 32.3323 34.6C31.2657 32.4 30.7323 29.8667 30.7323 27ZM51.6323 27.05C51.6323 24.9167 51.0323 23.2333 49.8323 22C48.6657 20.7667 47.2323 20.15 45.5323 20.15C43.8323 20.15 42.3823 20.7667 41.1823 22C40.0157 23.2 39.4323 24.8667 39.4323 27C39.4323 29.1333 40.0157 30.8333 41.1823 32.1C42.3823 33.3333 43.8323 33.95 45.5323 33.95C47.2323 33.95 48.6657 33.3333 49.8323 32.1C51.0323 30.8667 51.6323 29.1833 51.6323 27.05ZM91.4179 13.1V41H82.8679V37.2C82.0012 38.4333 80.8179 39.4333 79.3179 40.2C77.8512 40.9333 76.2179 41.3 74.4179 41.3C72.2846 41.3 70.4012 40.8333 68.7679 39.9C67.1346 38.9333 65.8679 37.55 64.9679 35.75C64.0679 33.95 63.6179 31.8333 63.6179 29.4V13.1H72.1179V28.25C72.1179 30.1167 72.6012 31.5667 73.5679 32.6C74.5346 33.6333 75.8346 34.15 77.4679 34.15C79.1346 34.15 80.4512 33.6333 81.4179 32.6C82.3846 31.5667 82.8679 30.1167 82.8679 28.25V13.1H91.4179Z" fill="#6FCFA1"/>
<path d="M103.109 4V41H94.5593V4H103.109ZM111.105 10.2C109.605 10.2 108.372 9.76666 107.405 8.9C106.472 8 106.005 6.9 106.005 5.6C106.005 4.26667 106.472 3.16666 107.405 2.3C108.372 1.4 109.605 0.949997 111.105 0.949997C112.572 0.949997 113.772 1.4 114.705 2.3C115.672 3.16666 116.155 4.26667 116.155 5.6C116.155 6.9 115.672 8 114.705 8.9C113.772 9.76666 112.572 10.2 111.105 10.2ZM115.355 13.1V41H106.805V13.1H115.355ZM133.051 20.2H128.451V41H119.901V20.2H116.801V13.1H119.901V12.3C119.901 8.86667 120.885 6.26666 122.851 4.5C124.818 2.7 127.701 1.8 131.501 1.8C132.135 1.8 132.601 1.81666 132.901 1.85V9.1C131.268 9 130.118 9.23333 129.451 9.8C128.785 10.3667 128.451 11.3833 128.451 12.85V13.1H133.051V20.2ZM160.869 26.55C160.869 27.3167 160.819 28.1333 160.719 29H141.369C141.502 30.7667 142.052 32.1167 143.019 33.05C143.986 33.9833 145.202 34.45 146.669 34.45C148.802 34.45 150.286 33.55 151.119 31.75H160.219C159.752 33.5833 158.902 35.2333 157.669 36.7C156.469 38.1667 154.952 39.3167 153.119 40.15C151.286 40.9833 149.236 41.4 146.969 41.4C144.236 41.4 141.802 40.8167 139.669 39.65C137.536 38.4833 135.869 36.8167 134.669 34.65C133.469 32.4833 132.869 29.95 132.869 27.05C132.869 24.15 133.452 21.6167 134.619 19.45C135.819 17.2833 137.486 15.6167 139.619 14.45C141.752 13.2833 144.202 12.7 146.969 12.7C149.669 12.7 152.069 13.2667 154.169 14.4C156.269 15.5333 157.902 17.15 159.069 19.25C160.269 21.35 160.869 23.7833 160.869 26.55ZM152.119 24.65C152.119 23.05 151.619 21.8 150.619 20.9C149.619 20 148.369 19.55 146.869 19.55C145.402 19.55 144.169 20 143.169 20.9C142.202 21.7667 141.602 23.0167 141.369 24.65H152.119Z" fill="#4269F4"/>
</svg>
