<svg width="281" height="109" viewBox="0 0 281 109" fill="none" xmlns="http://www.w3.org/2000/svg">
<rect width="281" height="109" fill="white"/>
<path d="M92.3269 55.25C92.3269 56.1167 92.2769 57.0333 92.1769 58H70.2769C70.4435 60.7 71.3602 62.8167 73.0269 64.35C74.7269 65.85 76.7769 66.6 79.1769 66.6C81.1435 66.6 82.7769 66.15 84.0769 65.25C85.4102 64.3167 86.3435 63.0833 86.8769 61.55H91.7769C91.0435 64.1833 89.5769 66.3333 87.3769 68C85.1769 69.6333 82.4435 70.45 79.1769 70.45C76.5769 70.45 74.2435 69.8667 72.1769 68.7C70.1435 67.5333 68.5435 65.8833 67.3769 63.75C66.2102 61.5833 65.6269 59.0833 65.6269 56.25C65.6269 53.4167 66.1935 50.9333 67.3269 48.8C68.4602 46.6667 70.0435 45.0333 72.0769 43.9C74.1435 42.7333 76.5102 42.15 79.1769 42.15C81.7769 42.15 84.0769 42.7167 86.0769 43.85C88.0769 44.9833 89.6102 46.55 90.6769 48.55C91.7769 50.5167 92.3269 52.75 92.3269 55.25ZM87.6269 54.3C87.6269 52.5667 87.2435 51.0833 86.4769 49.85C85.7102 48.5833 84.6602 47.6333 83.3269 47C82.0269 46.3333 80.5769 46 78.9769 46C76.6769 46 74.7102 46.7333 73.0769 48.2C71.4769 49.6667 70.5602 51.7 70.3269 54.3H87.6269ZM95.6327 56.2C95.6327 53.4 96.1994 50.95 97.3327 48.85C98.4661 46.7167 100.016 45.0667 101.983 43.9C103.983 42.7333 106.216 42.15 108.683 42.15C110.816 42.15 112.799 42.65 114.633 43.65C116.466 44.6167 117.866 45.9 118.833 47.5V33H123.433V70H118.833V64.85C117.933 66.4833 116.599 67.8333 114.833 68.9C113.066 69.9333 110.999 70.45 108.633 70.45C106.199 70.45 103.983 69.85 101.983 68.65C100.016 67.45 98.4661 65.7667 97.3327 63.6C96.1994 61.4333 95.6327 58.9667 95.6327 56.2ZM118.833 56.25C118.833 54.1833 118.416 52.3833 117.583 50.85C116.749 49.3167 115.616 48.15 114.183 47.35C112.783 46.5167 111.233 46.1 109.533 46.1C107.833 46.1 106.283 46.5 104.883 47.3C103.483 48.1 102.366 49.2667 101.533 50.8C100.699 52.3333 100.283 54.1333 100.283 56.2C100.283 58.3 100.699 60.1333 101.533 61.7C102.366 63.2333 103.483 64.4167 104.883 65.25C106.283 66.05 107.833 66.45 109.533 66.45C111.233 66.45 112.783 66.05 114.183 65.25C115.616 64.4167 116.749 63.2333 117.583 61.7C118.416 60.1333 118.833 58.3167 118.833 56.25ZM152.922 42.6V70H148.372V65.95C147.505 67.35 146.288 68.45 144.722 69.25C143.188 70.0167 141.488 70.4 139.622 70.4C137.488 70.4 135.572 69.9667 133.872 69.1C132.172 68.2 130.822 66.8667 129.822 65.1C128.855 63.3333 128.372 61.1833 128.372 58.65V42.6H132.872V58.05C132.872 60.75 133.555 62.8333 134.922 64.3C136.288 65.7333 138.155 66.45 140.522 66.45C142.955 66.45 144.872 65.7 146.272 64.2C147.672 62.7 148.372 60.5167 148.372 57.65V42.6H152.922Z" fill="#6FCFA1"/>
<path d="M162.154 33V70H157.604V33H162.154ZM169.759 38.15C168.892 38.15 168.159 37.85 167.559 37.25C166.959 36.65 166.659 35.9167 166.659 35.05C166.659 34.1833 166.959 33.45 167.559 32.85C168.159 32.25 168.892 31.95 169.759 31.95C170.592 31.95 171.292 32.25 171.859 32.85C172.459 33.45 172.759 34.1833 172.759 35.05C172.759 35.9167 172.459 36.65 171.859 37.25C171.292 37.85 170.592 38.15 169.759 38.15ZM171.959 42.6V70H167.409V42.6H171.959ZM188.364 46.35H182.614V70H178.064V46.35H174.514V42.6H178.064V40.65C178.064 37.5833 178.847 35.35 180.414 33.95C182.014 32.5167 184.564 31.8 188.064 31.8V35.6C186.064 35.6 184.647 36 183.814 36.8C183.014 37.5667 182.614 38.85 182.614 40.65V42.6H188.364V46.35ZM216.169 55.25C216.169 56.1167 216.119 57.0333 216.019 58H194.119C194.285 60.7 195.202 62.8167 196.869 64.35C198.569 65.85 200.619 66.6 203.019 66.6C204.985 66.6 206.619 66.15 207.919 65.25C209.252 64.3167 210.185 63.0833 210.719 61.55H215.619C214.885 64.1833 213.419 66.3333 211.219 68C209.019 69.6333 206.285 70.45 203.019 70.45C200.419 70.45 198.085 69.8667 196.019 68.7C193.985 67.5333 192.385 65.8833 191.219 63.75C190.052 61.5833 189.469 59.0833 189.469 56.25C189.469 53.4167 190.035 50.9333 191.169 48.8C192.302 46.6667 193.885 45.0333 195.919 43.9C197.985 42.7333 200.352 42.15 203.019 42.15C205.619 42.15 207.919 42.7167 209.919 43.85C211.919 44.9833 213.452 46.55 214.519 48.55C215.619 50.5167 216.169 52.75 216.169 55.25ZM211.469 54.3C211.469 52.5667 211.085 51.0833 210.319 49.85C209.552 48.5833 208.502 47.6333 207.169 47C205.869 46.3333 204.419 46 202.819 46C200.519 46 198.552 46.7333 196.919 48.2C195.319 49.6667 194.402 51.7 194.169 54.3H211.469Z" fill="#4269F4"/>
</svg>
