<svg width="800" height="312" viewBox="0 0 800 312" fill="none" xmlns="http://www.w3.org/2000/svg">
<path d="M486.836 161.273H512.651" stroke="#FCDDE9" stroke-width="2.77578"/>
<path d="M1.35156 298.674C2.906 299.341 3.47966 300.247 3.57219 300.617L4.6825 302.56H6.90313H8.01345V297.842L8.5686 298.674H11.0668V296.731L12.1771 293.956L13.0099 294.511L14.1202 295.343L14.9529 296.731L18.5614 297.842V296.731H21.6148H24.3906V293.123H27.9991V288.959H51.8708V293.123H56.5897H57.4224V292.013M118.767 282.575H117.657V251.208H114.604V249.265H113.493H110.162V247.045H106.276V240.105H101.835V248.155H100.447H96.8386V250.376H91.5646V252.874H88.7888V249.265H79.9063V246.212H78.5184V239.273H73.522V248.155H70.191V253.707H64.6395V257.315H61.5861V288.959H57.4224V292.013M118.767 282.575V285.628M118.767 282.575H120.71V250.376H124.041V249.265H136.255V244.824H146.248V178.483H149.578V179.593H152.632V180.704H154.852H156.24V182.647H160.682V184.034H163.735V185.145H168.176V186.255H172.062V187.365H174.283V192.084V193.195H156.796V197.913H154.852V283.408V284.518H134.589V285.628H133.479V286.739H132.646V287.849V288.682H131.536V290.069H130.703V291.18H129.593V292.013H57.4224" stroke="#FCDDE9" stroke-width="2.77578"/>
<path d="M174.838 193.472C183.054 193.472 185.849 193.472 186.219 193.472V208.184H194.268V205.686H196.489V201.8H200.93V200.967H202.041V199.857H203.151V198.746H204.261V197.358H205.372V196.248H206.759V195.138H207.87V193.472H208.98L209.813 192.917V192.084H211.201V190.697H217.863V189.586H218.973H220.083V188.198H221.193V187.366H222.304V186.255H223.692V185.423H224.802H225.635V184.035H227.023V183.202V182.647H228.966V184.035H229.798H230.354V185.423H231.464V186.255H232.297V187.366H233.407V188.198H234.517V189.586H235.628V190.697H236.738V192.084H237.848V192.917L254.503 193.472V284.518H263.385V265.92H265.328V249.266H267.827V240.661H270.88V203.465H273.101V200.967H277.82V197.358H280.873V189.586H287.257V195.138H291.143V179.593H296.695V170.711H304.467V179.593H308.631V198.469H313.072V213.458H317.791V223.451H319.456V232.889H324.453V299.23H344.161V259.258H353.876V189.586H357.207V180.426H384.687V189.586H388.018V260.646H392.182V279.799H394.125V283.408H395.79V282.02H398.289V277.024H404.395V247.323H406.893V234.554H412.167V228.725H441.868V221.508H442.979V219.842H444.644V218.177H445.477V205.131H454.637V201.522H459.633V199.302H463.242V203.743H473.79V215.401H479.897V280.91H486.003H486.836L487.114 280.354H487.946L488.224 279.244H489.334V278.134H490.167L490.445 277.024H491.555V275.913H492.665V274.803H508.21V275.913V287.016H509.32V287.849H510.708L509.598 288.959L510.708 290.07H511.541V291.458H512.651V295.899H531.804V295.066H534.024V293.678H535.135V292.568H538.466V293.678H539.576V294.789V295.899H540.686V299.23H545.405V297.009H548.736V295.899H549.846V297.009H552.067V295.899H554.01V297.009L555.398 297.287V298.119H556.508V299.23V300.34H557.619V301.45H558.729V300.618H559.839H560.95H562.06V299.23H563.17H564.28V298.397H565.391V299.23H566.501V298.397H567.889H568.999V299.23H569.832V300.34L571.22 300.618V301.45H572.33V302.838V303.671H574.273V304.781V306.169H575.661V305.059H577.882V143.508V142.398H580.102V158.22H590.373V170.989H599.533H601.198V169.878H602.309V168.768H603.697V167.658H604.529V165.715H613.689V159.053H639.504V166.547H655.326V186.811H666.429V238.995H690.024V261.757L703.07 254.817L713.895 247.323L721.112 240.383L726.386 233.166M690.024 281.742V283.408M690.024 281.742H721.112M690.024 281.742V277.856V264.532V276.468H724.998M720.28 309.5H698.628V290.347H690.024V283.408M720.28 309.5V283.408H690.024M720.28 309.5L764.97 309.223M701.959 281.742H713.895H721.112M721.112 281.742H730.828M800.5 281.742H753.311M753.311 281.742H752.479H740.265H736.379M753.311 281.742V309.295L764.97 309.223M800.5 309.223H765.802H764.97M736.379 281.742L746.094 282.575V309.34L764.97 309.223M736.379 281.742H730.828M736.102 309.402L730.828 309.435V281.742M753.311 233.166H754.422V230.113H719.724V233.166H721.112M753.311 233.166H748.037H746.094M753.311 233.166V247.323M746.927 276.468H753.311V247.323M746.927 276.468V233.166M746.927 276.468H743.319M746.927 233.166L744.706 235.387M746.927 233.166H746.094M746.094 233.166H721.112M726.941 250.098L726.109 251.209L724.998 253.707V274.803M726.941 250.098C726.941 250.098 727.755 249.65 728.329 249.543M726.941 250.098L728.329 249.543M728.329 249.543C728.862 249.445 729.717 249.543 729.717 249.543M728.329 249.543H729.717M729.717 249.543L730.828 250.098L732.215 251.486L732.771 253.707V276.468H734.991M724.998 275.913V274.803M743.319 276.468V264.532V254.817L742.763 252.041L741.931 250.098L740.265 248.988H737.767L735.824 251.209L734.991 255.928M743.319 276.468H738.877H734.991M734.991 255.928C734.991 262.404 734.991 271.638 734.991 256.76M734.991 255.928V275.358V276.468M734.991 276.468H724.998M724.998 276.468V274.803M724.998 276.468H721.112V251.209V233.166M753.311 247.323L776.073 259.814L800.5 268.696" stroke="#FCDDE9" stroke-width="2.77578"/>
<path d="M753.589 276.468H758.585H800.5" stroke="#FCDDE9" stroke-width="2.77578"/>
<path d="M690.023 264.81L701.959 260.924L713.618 255.372L734.436 243.436L744.984 235.109" stroke="#FCDDE9" stroke-width="2.77578"/>
<path d="M753.312 237.885L754.977 238.995L772.187 251.486L782.18 257.87L800.5 266.475" stroke="#FCDDE9" stroke-width="2.77578"/>
<path d="M244.905 184.59C244.905 210.127 245.158 169.6 245.343 158.497M245.343 158.497L244.788 191.529M245.343 158.497H303.912H306.133V179.871L308.631 107.7L310.297 71.3377H315.571V61.3448H329.727V28.0354V0V14.4341L332.78 48.0211L334.724 49.6865V52.4623V63.5655H341.385V69.6722H346.382L348.325 150.725M348.325 150.725H373.029V179.871M348.325 150.725V258.981" stroke="#FCDDE9" stroke-width="2.77578"/>
<path d="M413.833 165.437V227.059V195.693L388.019 194.027L400.232 194.815V165.437H413.833ZM413.833 165.437V121.302H452.417V171.266M452.417 171.266V204.02M452.417 171.266H487.114V161.551M487.114 161.551V204.02V207.074M487.114 161.551V207.074M487.114 207.074H474.623M513.206 161.551V158.775H529.584M529.584 158.775V142.953M529.584 158.775V294.788V142.953M529.584 142.953H576.772M578.437 304.781L581.768 307.557H584.267V305.336H585.654V303.393H590.373V301.173H592.871M634.508 303.393H630.622V305.336L628.957 307.557V305.336H626.736V303.393H623.405V305.336H621.184H619.241V303.393H617.298H614.523H610.914V305.336L608.693 303.393H605.64V305.336V307.557H603.142L600.644 305.336H597.59V303.393H595.37V301.173H592.871M634.508 303.393V198.191H592.316L592.871 301.173M634.508 303.393L638.117 305.336H650.885L653.384 307.557H661.156H664.764V309.5H667.262H696.408H698.629V291.457" stroke="#FCDDE9" stroke-width="2.77578"/>
<path d="M579.27 171.821C588.152 171.821 581.861 171.821 577.604 171.821H585.654H589.54L590.373 170.988" stroke="#FCDDE9" stroke-width="2.77578"/>
</svg>
