<svg width="626" height="170" viewBox="0 0 626 170" fill="none" xmlns="http://www.w3.org/2000/svg">
<path d="M0.837891 52.4724C9.05421 52.4724 11.8485 52.4724 12.2186 52.4724V67.184H20.2684V64.6858H22.489V60.7997H26.9303V59.967H28.0406V58.8567H29.1509V57.7464H30.2612V56.3585H31.3715V55.2482H32.7594V54.1379H33.8697V52.4724H34.98L35.8128 51.9172V51.0845H37.2007V49.6966H43.8626V48.5863H44.9729H46.0832V47.1984H47.1935V46.3657H48.3038V45.2553H49.6917V44.4226H50.802H51.6348V43.0347H53.0226V42.202V41.6468H54.9657V43.0347H55.7984H56.3536V44.4226H57.4639V45.2553H58.2966V46.3657H59.4069V47.1984H60.5173V48.5863H61.6276V49.6966H62.7379V51.0845H63.8482V51.9172L80.5029 52.4724V143.518H89.3854V124.92H91.3285V108.266H93.8267V99.6607H96.88V62.4652H99.1007V59.967H103.82V56.3585H106.873V48.5863H113.257V54.1379H117.143V38.5935H122.695V29.711H130.467V38.5935H134.631V57.4688H139.072V72.458H143.791V82.4509H145.456V91.8885H150.453V158.23H170.161V118.258H179.876V48.5863H183.207V39.4262H210.687V48.5863H214.018V119.646H218.182V138.799H220.125V142.408H221.79V141.02H224.289V136.024H230.395V106.323H232.893V93.554H238.167V87.7249H267.868V80.5078H268.979V78.8423H270.644V77.1769H271.477V64.1307H280.637V60.5222H285.633V58.3015H289.242V62.7428H299.79V74.4011H305.897V139.91H312.003H312.836L313.114 139.354H313.946L314.224 138.244H315.334V137.134H316.167L316.445 136.024H317.555V134.913H318.665V133.803H334.21V134.913V146.016H335.32V146.849H336.708L335.598 147.959L336.708 149.07H337.541V150.458H338.651V154.899H357.804V154.066H360.024V152.678H361.135V151.568H364.466V152.678H365.576V153.789V154.899H366.686V158.23H371.405V156.009H374.736V154.899H375.846V156.009H378.067V154.899H380.01V156.009L381.398 156.287V157.119H382.508V158.23V159.34H383.619V160.45H384.729V159.618H385.839H386.95H388.06V158.23H389.17H390.28V157.397H391.391V158.23H392.501V157.397H393.889H394.999V158.23H395.832V159.34L397.22 159.618V160.45H398.33V161.838V162.671H400.273V163.781V165.169H401.661V164.059H403.882V2.50826V1.39795H406.102V17.2199H416.373V29.9885H425.533H427.198V28.8782H428.309V27.7679H429.697V26.6576H430.529V24.7145H439.689V18.0527H465.504V25.5473H481.326V45.8105H492.429V97.9953H516.024V120.757L529.07 113.817L539.895 106.323L547.112 99.3832L552.386 92.1661M516.024 140.742V142.408M516.024 140.742H547.112M516.024 140.742V136.856V123.532V135.468H550.998M546.28 168.5H524.628V149.347H516.024V142.408M546.28 168.5V142.408H516.024M546.28 168.5L590.97 168.223M527.959 140.742H539.895H547.112M547.112 140.742H556.828M626.5 140.742H579.311M579.311 140.742H578.479H566.265H562.379M579.311 140.742V168.295L590.97 168.223M626.5 168.223H591.802H590.97M562.379 140.742L572.094 141.575V168.34L590.97 168.223M562.379 140.742H556.828M562.102 168.402L556.828 168.435V140.742M579.311 92.1661H580.422V89.1127H545.724V92.1661H547.112M579.311 92.1661H574.037H572.094M579.311 92.1661V106.323M572.927 135.468H579.311V106.323M572.927 135.468V92.1661M572.927 135.468H569.319M572.927 92.1661L570.706 94.3867M572.927 92.1661H572.094M572.094 92.1661H547.112M552.941 109.098L552.109 110.209L550.998 112.707V133.803M552.941 109.098C552.941 109.098 553.755 108.65 554.329 108.543M552.941 109.098L554.329 108.543M554.329 108.543C554.862 108.445 555.717 108.543 555.717 108.543M554.329 108.543H555.717M555.717 108.543L556.828 109.098L558.215 110.486L558.771 112.707V135.468H560.991M550.998 134.913V133.803M569.319 135.468V123.532V113.817L568.763 111.041L567.931 109.098L566.265 107.988H563.767L561.824 110.209L560.991 114.928M569.319 135.468H564.877H560.991M560.991 114.928C560.991 121.404 560.991 130.638 560.991 115.76M560.991 114.928V134.358V135.468M560.991 135.468H550.998M550.998 135.468V133.803M550.998 135.468H547.112V110.209V92.1661M579.311 106.323L602.073 118.814L626.5 127.696" stroke="#FCDDE9" stroke-width="2.77578"/>
</svg>
