<svg width="314" height="193" viewBox="0 0 314 193" fill="none" xmlns="http://www.w3.org/2000/svg">
<path d="M26.8334 46.4367V108.059V76.6928L1.01855 75.0273L13.232 75.8153V46.4367H26.8334ZM26.8334 46.4367V2.30176H65.4168V52.2659M65.4168 52.2659V85.0201M65.4168 52.2659H100.114V42.5506M100.114 42.5506V85.0201V88.0735M100.114 42.5506V88.0735M100.114 88.0735H87.623M126.206 42.5506V39.7749H142.584M142.584 39.7749V23.9529M142.584 39.7749V175.788V23.9529M142.584 23.9529H189.772M191.437 185.781L194.768 188.557H197.267V186.336H198.654V184.393H203.373V182.173H205.871M247.508 184.393H243.622V186.336L241.957 188.557V186.336H239.736V184.393H236.405V186.336H234.184H232.241V184.393H230.298H227.523H223.914V186.336L221.693 184.393H218.64V186.336V188.557H216.142L213.644 186.336H210.59V184.393H208.37V182.173H205.871M247.508 184.393V79.191H205.316L205.871 182.173M247.508 184.393L251.117 186.336H263.885L266.384 188.557H274.156H277.764V190.5H280.262H309.408H311.629V172.457" stroke="#FCDDE9" stroke-width="2.77578"/>
</svg>
