<svg width="176" height="127" viewBox="0 0 176 127" fill="none" xmlns="http://www.w3.org/2000/svg">
<path d="M1.35156 121.674C2.906 122.341 3.47966 123.247 3.57219 123.617L4.6825 125.56H6.90313H8.01345V120.842L8.5686 121.674H11.0668V119.731L12.1771 116.956L13.0099 117.511L14.1202 118.343L14.9529 119.731L18.5614 120.842V119.731H21.6148H24.3906V116.123H27.9991V111.959H51.8708V116.123H56.5897H57.4224V115.013M118.767 105.575H117.657V74.2085H114.604V72.2654H113.493H110.162V70.0448H106.276V63.1053H101.835V71.1551H100.447H96.8386V73.3757H91.5646V75.8739H88.7888V72.2654H79.9063V69.2121H78.5184V62.2726H73.522V71.1551H70.191V76.7067H64.6395V80.3152H61.5861V111.959H57.4224V115.013M118.767 105.575V108.628M118.767 105.575H120.71V73.3757H124.041V72.2654H136.255V67.8242H146.248V1.48291H149.578V2.59322H152.632V3.70354H154.852H156.24V5.64659H160.682V7.03448H163.735V8.14479H168.176V9.25511H172.062V10.3654H174.283V15.0843V16.1946H156.796V20.9134H154.852V106.408V107.518H134.589V108.628H133.479V109.739H132.646V110.849V111.682H131.536V113.069H130.703V114.18H129.593V115.013H57.4224" stroke="#FCDDE9" stroke-width="2.77578"/>
</svg>
